<svg width="853" height="734" viewBox="0 0 853 734" fill="none" xmlns="http://www.w3.org/2000/svg">
<g clip-path="url(#clip0_790_1537)">
<path d="M184.413 246.739L172.341 279.029L335.724 339.022L347.795 306.732L184.413 246.739Z" fill="#B39AAD"/>
<path d="M0 222.683L173.462 286.369L191.59 237.88L18.1279 174.213L0 222.683Z" fill="#8C604F"/>
<path d="M533.962 280.38H321.317L280.567 176.908H573.447L533.962 280.38Z" fill="url(#paint0_linear_790_1537)"/>
<path d="M321.318 330.872H533.962L604 681.674H249.996L321.318 330.872Z" fill="url(#paint1_linear_790_1537)"/>
<path d="M533.962 280.38H321.317V330.872H533.962V280.38Z" fill="#786465"/>
<path d="M604 681.674C604 710.551 580.358 734 551.183 734H302.831C273.656 734 250.014 710.551 250.014 681.674H604Z" fill="url(#paint2_linear_790_1537)"/>
<path d="M532.678 330.872C532.678 330.872 334.763 343.523 297.487 681.693H249.996L320.034 330.872H532.678Z" fill="url(#paint3_linear_790_1537)"/>
<path d="M344.752 176.908C344.752 176.908 359.896 244.879 532.678 280.38H320.034L280.549 176.908H344.733H344.752Z" fill="url(#paint4_linear_790_1537)"/>
<path d="M532.678 330.872L566.705 681.674H604L532.678 330.872Z" fill="#F5DAC5"/>
<path d="M573.428 176.908L508.715 280.38H532.678L573.428 176.908Z" fill="#F5DAC5"/>
<path d="M431.558 575.507C432.106 574.291 432.691 573.018 433.201 571.727C433.597 570.398 433.994 569.032 434.409 567.647C435.354 564.859 435.561 561.939 436.052 558.907C436.43 555.894 436.411 552.825 436.487 549.662C436.354 546.556 436.26 543.318 435.826 540.174C435.165 533.774 433.843 527.392 432.332 521.048C431.558 517.885 430.803 514.76 429.934 511.691C429.16 508.771 428.442 505.908 427.744 502.633C427.328 499.77 426.913 496.906 426.497 494.062C425.874 491.124 426.233 488.335 426.044 485.491C425.799 482.609 426.346 479.932 426.629 477.219C426.724 474.449 427.706 471.997 428.31 469.434C429.726 464.381 432.219 459.945 434.938 455.847C436.449 453.901 438.035 452.048 439.583 450.233C441.34 448.623 442.888 446.864 444.701 445.46C446.287 444.188 447.873 443.027 449.44 441.905C466.794 453.751 478.728 478.155 478.728 506.395C478.728 544.198 457.39 575.17 430.236 578.239C430.689 577.36 431.086 576.443 431.539 575.47L431.558 575.507Z" fill="#786465"/>
<path d="M425.799 434.269C430.973 434.269 435.977 435.336 440.716 437.226C440.32 437.413 439.942 437.6 439.546 437.806C437.185 438.985 434.957 440.613 432.483 442.129C430.198 443.888 427.932 445.891 425.648 448.024C424.628 449.203 423.589 450.42 422.532 451.636C421.512 452.871 420.36 454.088 419.586 455.547C417.962 458.411 415.847 461.218 414.827 464.512C413.562 467.712 412.165 471.024 411.693 474.486C411.032 477.93 410.182 481.467 410.314 484.967L410.163 490.282C410.163 491.161 410.107 492.078 410.144 492.939L410.447 495.54C410.919 499.077 411.258 502.334 411.863 506.151C412.543 509.202 413.449 512.589 414.374 515.883C415.281 518.952 416.168 522.002 417.075 525.034C418.755 531.004 420.474 536.806 421.588 542.383C422.834 547.997 423.57 553.349 423.835 558.421C423.835 560.929 424.024 563.436 423.684 565.738C423.608 566.917 423.514 568.096 423.438 569.219C423.212 570.342 422.947 571.409 422.739 572.475C422.475 573.523 422.362 574.628 421.984 575.601C421.625 576.499 421.285 577.36 420.983 578.24C394.018 574.908 372.888 544.029 372.888 506.413C372.888 466.57 396.586 434.25 425.836 434.25L425.799 434.269Z" fill="#786465"/>
<path d="M424.213 0C424.213 0 426.649 0.617577 430.709 2.33931C432.729 3.20017 435.165 4.36047 437.847 5.89506C440.509 7.44836 443.474 9.35723 446.495 11.7901C448.006 13.0066 449.479 14.4289 451.065 15.8512C452.575 17.3483 453.935 19.1262 455.446 20.8666C456.768 22.7755 458.089 24.7967 459.355 26.9488C460.336 29.2694 461.564 31.6087 462.112 34.2288C462.584 36.8862 463.471 39.5624 463.226 42.407L463.15 46.6739C463.112 48.1149 462.565 49.4436 462.281 50.8285L461.186 54.9831C460.676 56.2931 460.015 57.5096 459.43 58.7821C458.24 61.3273 456.994 63.8725 455.276 65.9498C453.595 68.0645 452.009 70.3664 450.196 72.2566C448.497 74.0157 446.797 75.7749 445.117 77.534C441.944 80.9588 438.677 84.0654 436.128 87.3966C433.673 90.7277 431.237 93.9466 429.916 97.1842C428.707 100.403 427.763 103.547 428.273 106.429C428.518 109.349 429.764 112.043 431.219 114.345C432.635 116.647 434.485 118.425 435.807 120.035C438.942 122.804 440.792 124.582 440.792 124.582C440.792 124.582 438.47 123.796 434.315 122.112C432.446 120.97 429.859 119.791 427.48 117.546C425.063 115.393 422.381 112.38 421.059 108.151C419.36 103.996 419.605 98.9621 420.738 94.2648C421.871 89.4739 424.156 85.0947 426.838 80.9026C429.557 76.7667 432.597 72.7993 435.939 69.1687C437.544 67.4095 439.149 65.6316 440.773 63.8538C442.284 62.1882 443.342 60.3541 444.682 58.6511C446.193 57.0043 447.062 55.1702 448.006 53.3549C448.459 52.4379 449.025 51.5583 449.422 50.6413L450.215 47.8342C450.933 45.9814 451.065 44.1287 451.254 42.2573C451.707 40.3858 451.121 38.5331 451.046 36.6804C450.895 34.8089 449.988 33.0685 449.667 31.2344C448.95 29.4753 448.176 27.7536 447.383 26.0505C445.475 22.7942 443.436 19.7063 441.264 16.974C439.036 14.2979 436.865 11.865 434.825 9.76895C432.729 7.74779 430.916 5.89506 429.311 4.49147C426.158 1.60944 424.194 0.0374289 424.194 0.0374289L424.213 0Z" fill="#6D4A48"/>
<path d="M484.809 14.6348C484.809 14.6348 486.735 14.9716 489.945 16.1694C491.55 16.7682 493.476 17.5729 495.591 18.6771C497.706 19.8 500.067 21.1848 502.465 23.0376C503.673 23.9546 504.844 25.0213 506.128 26.1067C507.356 27.2483 508.432 28.6332 509.641 29.9806C510.717 31.4591 511.793 33.0498 512.813 34.7528C513.625 36.5868 514.626 38.4396 515.135 40.5356C515.57 42.6503 516.269 44.8212 516.099 47.1044C516.136 49.3875 516.099 51.7081 515.381 53.8977L514.531 57.2476C514.154 58.2956 513.625 59.2688 513.134 60.2981C512.171 62.3192 511.17 64.3404 509.81 65.9685C508.508 67.6341 507.242 69.4681 505.845 70.9653C504.636 72.294 503.088 73.7725 501.898 74.9702C499.425 77.5154 497.026 79.8921 495.044 82.3063C493.155 84.7204 491.267 87.0598 490.247 89.3429C489.322 91.6261 488.491 93.8157 488.756 95.8743C488.831 97.9516 489.605 99.9727 490.606 101.751C491.588 103.528 492.91 104.951 493.854 106.242C496.139 108.469 497.499 109.966 497.499 109.966C497.499 109.966 495.667 109.498 492.362 108.319C490.871 107.496 488.793 106.673 486.867 104.969C484.903 103.341 482.675 100.983 481.561 97.6147C480.126 94.2835 480.239 90.2225 481.089 86.4422C481.939 82.587 483.676 79.1248 485.697 75.7749C487.755 72.4625 490.172 69.4307 492.683 66.5861L496.328 62.4877C497.461 61.2525 498.235 59.9238 499.236 58.6699C500.35 57.4535 500.954 56.1247 501.615 54.8147C501.936 54.1597 502.352 53.5234 502.654 52.8684L503.258 50.9034C504.221 48.2834 504.221 45.6634 503.994 43.0246C503.957 41.6772 503.315 40.4233 503.145 39.0571C502.673 37.7658 502.125 36.4745 501.577 35.202C500.218 32.7504 498.802 30.3736 497.234 28.2589C495.61 26.2003 494.043 24.2727 492.57 22.5884C491.022 20.9415 489.662 19.5192 488.548 18.3589C486.225 16.0384 484.809 14.6909 484.809 14.6909V14.6348Z" fill="#6D4A48"/>
<path d="M371.396 14.6348C371.396 14.6348 373.322 14.9716 376.532 16.1694C378.138 16.7682 380.064 17.5729 382.179 18.6771C384.293 19.8 386.654 21.1848 389.052 23.0376C390.261 23.9546 391.431 25.0213 392.715 26.1067C393.943 27.2483 395.019 28.6332 396.228 29.9806C397.285 31.4591 398.38 33.0498 399.4 34.7528C400.212 36.5868 401.213 38.4396 401.723 40.5356C402.157 42.6503 402.856 44.8212 402.667 47.1044C402.705 49.3875 402.667 51.7081 401.949 53.879L401.1 57.2289C400.703 58.2769 400.193 59.2501 399.702 60.2606C398.739 62.2818 397.738 64.303 396.379 65.9311C395.076 67.5967 393.811 69.4307 392.413 70.9092C391.205 72.2379 389.656 73.7163 388.467 74.9141C385.993 77.4592 383.595 79.836 381.631 82.2501C379.724 84.6643 377.854 87.0036 376.835 89.3055C375.909 91.5887 375.097 93.7782 375.343 95.8368C375.418 97.9141 376.193 99.9353 377.193 101.713C378.175 103.491 379.497 104.913 380.441 106.205C382.726 108.432 384.086 109.929 384.086 109.929C384.086 109.929 382.254 109.461 378.949 108.282C377.458 107.459 375.381 106.635 373.454 104.932C371.491 103.304 369.262 100.946 368.148 97.5773C366.713 94.2461 366.808 90.1851 367.676 86.4047C368.526 82.5496 370.263 79.0687 372.284 75.7375C374.342 72.425 376.759 69.3933 379.271 66.5487L382.915 62.4689C384.048 61.2151 384.822 59.9051 385.823 58.6512C386.937 57.4348 387.56 56.106 388.221 54.796C388.542 54.141 388.958 53.5047 389.26 52.8497L389.864 50.8847C390.827 48.2647 390.827 45.6446 390.6 43.0059C390.563 41.6585 389.921 40.4046 389.751 39.0384C389.279 37.7471 388.731 36.4558 388.183 35.1832C386.824 32.7504 385.408 30.3549 383.84 28.2402C382.216 26.1816 380.649 24.254 379.176 22.5697C377.628 20.9228 376.268 19.5005 375.154 18.3402C372.831 16.0196 371.415 14.6722 371.415 14.6722L371.396 14.6348Z" fill="#6D4A48"/>
</g>
<defs>
<linearGradient id="paint0_linear_790_1537" x1="427.007" y1="280.38" x2="427.007" y2="176.908" gradientUnits="userSpaceOnUse">
<stop stop-color="#D1B3B0"/>
<stop offset="0.41" stop-color="#BDA8AB"/>
<stop offset="1" stop-color="#9C96A3"/>
</linearGradient>
<linearGradient id="paint1_linear_790_1537" x1="427.007" y1="681.674" x2="427.007" y2="330.872" gradientUnits="userSpaceOnUse">
<stop stop-color="#DEBEBB"/>
<stop offset="1" stop-color="#A6A0AD"/>
</linearGradient>
<linearGradient id="paint2_linear_790_1537" x1="427.007" y1="681.674" x2="427.007" y2="734" gradientUnits="userSpaceOnUse">
<stop stop-color="#D1B3B0"/>
<stop offset="0.41" stop-color="#BDA8AB"/>
<stop offset="1" stop-color="#9C96A3"/>
</linearGradient>
<linearGradient id="paint3_linear_790_1537" x1="391.337" y1="681.674" x2="391.337" y2="330.872" gradientUnits="userSpaceOnUse">
<stop stop-color="#CFB1AE"/>
<stop offset="1" stop-color="#95909C"/>
</linearGradient>
<linearGradient id="paint4_linear_790_1537" x1="406.613" y1="280.38" x2="406.613" y2="176.908" gradientUnits="userSpaceOnUse">
<stop stop-color="#B89D9B"/>
<stop offset="0.37" stop-color="#A49193"/>
<stop offset="1" stop-color="#7C7882"/>
</linearGradient>
<clipPath id="clip0_790_1537">
<rect width="604" height="734" fill="white"/>
</clipPath>
</defs>
</svg>
