<svg width="53" height="53" viewBox="0 0 53 53" fill="none" xmlns="http://www.w3.org/2000/svg">
<path fill-rule="evenodd" clip-rule="evenodd" d="M44.4558 6.97828C43.2135 5.73629 41.5287 5.03857 39.772 5.03857C38.0152 5.03857 36.3305 5.73629 35.0881 6.97828L33.5268 8.54178L44.458 19.473L46.0171 17.9117C46.6324 17.2965 47.1205 16.5662 47.4535 15.7623C47.7865 14.9584 47.9579 14.0969 47.9579 13.2268C47.9579 12.3567 47.7865 11.4951 47.4535 10.6912C47.1205 9.88737 46.6324 9.15699 46.0171 8.54178L44.4558 6.97828ZM41.3332 22.5956L30.402 11.6644L10.3282 31.7403C9.88897 32.1797 9.58211 32.7337 9.44271 33.3392L7.17033 43.1773C7.08566 43.5425 7.09537 43.9233 7.19855 44.2837C7.30173 44.6442 7.49498 44.9724 7.76009 45.2375C8.0252 45.5026 8.35343 45.6959 8.71388 45.7991C9.07432 45.9022 9.4551 45.912 9.82033 45.8273L19.6607 43.5571C20.2653 43.4173 20.8185 43.1105 21.2573 42.6716L41.3332 22.5956Z" fill="white"/>
</svg>
