<svg width="14" height="17" viewBox="0 0 14 17" fill="none" xmlns="http://www.w3.org/2000/svg">
<path d="M10.15 0H3.85C2.82926 0.00112495 1.85064 0.411939 1.12887 1.14231C0.407093 1.87267 0.00111172 2.86294 0 3.89583V13.1042C0.00111172 14.1371 0.407093 15.1273 1.12887 15.8577C1.85064 16.5881 2.82926 16.9989 3.85 17H10.15C11.1707 16.9989 12.1494 16.5881 12.8711 15.8577C13.5929 15.1273 13.9989 14.1371 14 13.1042V3.89583C13.9989 2.86294 13.5929 1.87267 12.8711 1.14231C12.1494 0.411939 11.1707 0.00112495 10.15 0ZM11.9 13.1042C11.9 13.5738 11.7156 14.0242 11.3874 14.3563C11.0592 14.6884 10.6141 14.875 10.15 14.875H8.05V14.5208C8.05 14.239 7.93938 13.9688 7.74246 13.7695C7.54555 13.5703 7.27848 13.4583 7 13.4583C6.72152 13.4583 6.45445 13.5703 6.25754 13.7695C6.06062 13.9688 5.95 14.239 5.95 14.5208V14.875H3.85C3.38587 14.875 2.94075 14.6884 2.61256 14.3563C2.28437 14.0242 2.1 13.5738 2.1 13.1042V3.89583C2.1 3.42618 2.28437 2.97576 2.61256 2.64367C2.94075 2.31157 3.38587 2.125 3.85 2.125H10.15C10.6141 2.125 11.0592 2.31157 11.3874 2.64367C11.7156 2.97576 11.9 3.42618 11.9 3.89583V13.1042ZM9.8 11.6875C9.8 11.9693 9.68938 12.2395 9.49246 12.4388C9.29555 12.6381 9.02848 12.75 8.75 12.75H5.25C4.97152 12.75 4.70445 12.6381 4.50754 12.4388C4.31062 12.2395 4.2 11.9693 4.2 11.6875C4.2 11.4057 4.31062 11.1355 4.50754 10.9362C4.70445 10.7369 4.97152 10.625 5.25 10.625H8.75C9.02848 10.625 9.29555 10.7369 9.49246 10.9362C9.68938 11.1355 9.8 11.4057 9.8 11.6875ZM7 2.83333C6.25739 2.83333 5.5452 3.13184 5.0201 3.6632C4.495 4.19455 4.2 4.91522 4.2 5.66667V8.14583C4.20278 8.39432 4.29155 8.63397 4.45087 8.82309C4.61019 9.01221 4.82997 9.13883 5.07201 9.18094C5.31404 9.22305 5.563 9.17798 5.77559 9.05357C5.98819 8.92916 6.15096 8.73328 6.2356 8.5H7.7644C7.84904 8.73328 8.01181 8.92916 8.22441 9.05357C8.437 9.17798 8.68596 9.22305 8.92799 9.18094C9.17003 9.13883 9.38981 9.01221 9.54913 8.82309C9.70845 8.63397 9.79722 8.39432 9.8 8.14583V5.66667C9.8 4.91522 9.505 4.19455 8.9799 3.6632C8.4548 3.13184 7.74261 2.83333 7 2.83333ZM7 4.95833C7.18565 4.95833 7.3637 5.03296 7.49497 5.1658C7.62625 5.29864 7.7 5.4788 7.7 5.66667V6.375H6.3V5.66667C6.3 5.4788 6.37375 5.29864 6.50503 5.1658C6.6363 5.03296 6.81435 4.95833 7 4.95833Z" fill="white"/>
</svg>
