<svg width="7" height="6" viewBox="0 0 7 6" fill="none" xmlns="http://www.w3.org/2000/svg">
<path fill-rule="evenodd" clip-rule="evenodd" d="M5.5 2.25109C5.69891 2.25109 5.88968 2.17203 6.03033 2.03131C6.17098 1.89059 6.25 1.69973 6.25 1.50072C6.25 1.30172 6.17098 1.11086 6.03033 0.970138C5.88968 0.829418 5.69891 0.750362 5.5 0.750362C5.30109 0.750362 5.11032 0.829418 4.96967 0.970138C4.82902 1.11086 4.75 1.30172 4.75 1.50072C4.75 1.69973 4.82902 1.89059 4.96967 2.03131C5.11032 2.17203 5.30109 2.25109 5.5 2.25109ZM5.5 3.00145C5.78054 3.00142 6.05546 2.92269 6.29352 2.77418C6.53158 2.62567 6.72324 2.41334 6.84673 2.16132C6.97022 1.90929 7.02059 1.62767 6.99213 1.34844C6.96366 1.06921 6.85749 0.80356 6.68568 0.58167C6.51388 0.359781 6.28331 0.190543 6.02019 0.0931807C5.75706 -0.00418152 5.47192 -0.0257657 5.19715 0.0308798C4.92237 0.0875253 4.66899 0.22013 4.46577 0.413632C4.26254 0.607133 4.11764 0.853776 4.0475 1.12554H0.375C0.275544 1.12554 0.180161 1.16507 0.109835 1.23543C0.0395089 1.30579 8.64546e-08 1.40122 8.64546e-08 1.50072C8.64546e-08 1.60023 0.0395089 1.69566 0.109835 1.76602C0.180161 1.83638 0.275544 1.87591 0.375 1.87591H4.0475C4.13064 2.19807 4.31844 2.48345 4.58136 2.68719C4.84429 2.89093 5.16743 3.00148 5.5 3.00145ZM2.25 4.50217C2.25 4.70118 2.17098 4.89204 2.03033 5.03276C1.88968 5.17348 1.69891 5.25253 1.5 5.25253C1.30109 5.25253 1.11032 5.17348 0.96967 5.03276C0.829018 4.89204 0.75 4.70118 0.75 4.50217C0.75 4.30316 0.829018 4.11231 0.96967 3.97159C1.11032 3.83087 1.30109 3.75181 1.5 3.75181C1.69891 3.75181 1.88968 3.83087 2.03033 3.97159C2.17098 4.11231 2.25 4.30316 2.25 4.50217ZM2.9525 4.87735C2.86055 5.23037 2.64326 5.5378 2.34125 5.74221C2.03923 5.94661 1.67316 6.034 1.31144 5.98803C0.949713 5.94207 0.617096 5.7659 0.375746 5.49245C0.134395 5.219 0.000825825 4.86698 8.64546e-08 4.50217C-0.000123834 4.13682 0.132974 3.78396 0.374333 3.50978C0.615691 3.23561 0.948733 3.05893 1.311 3.0129C1.67327 2.96686 2.03988 3.05463 2.34209 3.25974C2.64429 3.46485 2.86133 3.77321 2.9525 4.12699H6.625C6.72446 4.12699 6.81984 4.16652 6.89016 4.23688C6.96049 4.30724 7 4.40267 7 4.50217C7 4.60168 6.96049 4.6971 6.89016 4.76746C6.81984 4.83782 6.72446 4.87735 6.625 4.87735H2.9525Z" fill="white"/>
</svg>
