<svg width="53" height="53" viewBox="0 0 53 53" fill="none" xmlns="http://www.w3.org/2000/svg">
<g clip-path="url(#clip0_603_1083)">
<path d="M21.148 0.517788C10.8585 2.52599 2.5669 10.7969 0.537994 21.0553C-3.29208 40.4127 14.171 54.8428 27.3278 52.8035C31.5927 52.141 33.6837 47.1516 31.7273 43.3111C29.336 38.6115 32.7521 33.1252 38.0314 33.1252H46.2816C49.9874 33.1252 52.9894 30.0611 52.9997 26.3656C52.948 10.0516 38.1038 -2.78436 21.148 0.517788ZM9.93721 33.1252C8.10499 33.1252 6.62471 31.6449 6.62471 29.8127C6.62471 27.9805 8.10499 26.5002 9.93721 26.5002C11.7694 26.5002 13.2497 27.9805 13.2497 29.8127C13.2497 31.6449 11.7694 33.1252 9.93721 33.1252ZM13.2497 19.8752C11.4175 19.8752 9.93721 18.3949 9.93721 16.5627C9.93721 14.7305 11.4175 13.2502 13.2497 13.2502C15.0819 13.2502 16.5622 14.7305 16.5622 16.5627C16.5622 18.3949 15.0819 19.8752 13.2497 19.8752ZM26.4997 13.2502C24.6675 13.2502 23.1872 11.7699 23.1872 9.93771C23.1872 8.10548 24.6675 6.62521 26.4997 6.62521C28.3319 6.62521 29.8122 8.10548 29.8122 9.93771C29.8122 11.7699 28.3319 13.2502 26.4997 13.2502ZM39.7497 19.8752C37.9175 19.8752 36.4372 18.3949 36.4372 16.5627C36.4372 14.7305 37.9175 13.2502 39.7497 13.2502C41.5819 13.2502 43.0622 14.7305 43.0622 16.5627C43.0622 18.3949 41.5819 19.8752 39.7497 19.8752Z" fill="white"/>
</g>
<defs>
<clipPath id="clip0_603_1083">
<rect width="53" height="53" fill="white"/>
</clipPath>
</defs>
</svg>
