<svg width="254" height="309" viewBox="0 0 254 309" fill="none" xmlns="http://www.w3.org/2000/svg">
<g clip-path="url(#clip0_622_1222)">
<path d="M77.551 103.873L72.4746 117.466L141.182 142.722L146.258 129.128L77.551 103.873Z" fill="#B39AAD"/>
<path d="M0 93.7455L72.9458 120.556L80.5691 100.143L7.62334 73.3403L0 93.7455Z" fill="#8C604F"/>
<path d="M224.547 118.035H135.123L117.987 74.4749H241.151L224.547 118.035Z" fill="url(#paint0_linear_622_1222)"/>
<path d="M135.123 139.291H224.547L254 286.972H105.13L135.123 139.291Z" fill="url(#paint1_linear_622_1222)"/>
<path d="M224.547 118.035H135.124V139.291H224.547V118.035Z" fill="#786465"/>
<path d="M254 286.972C254 299.128 244.058 309 231.789 309H127.35C115.081 309 105.139 299.128 105.139 286.972H254Z" fill="url(#paint2_linear_622_1222)"/>
<path d="M224.007 139.291C224.007 139.291 140.777 144.616 125.102 286.98H105.13L134.583 139.291H224.007Z" fill="url(#paint3_linear_622_1222)"/>
<path d="M144.978 74.4749C144.978 74.4749 151.347 103.089 224.007 118.035H134.584L117.979 74.4749H144.97H144.978Z" fill="url(#paint4_linear_622_1222)"/>
<path d="M224.007 139.291L238.316 286.972H254L224.007 139.291Z" fill="#F5DAC5"/>
<path d="M241.143 74.4749L213.93 118.035H224.007L241.143 74.4749Z" fill="#F5DAC5"/>
<path d="M181.483 242.278C181.714 241.765 181.96 241.23 182.174 240.686C182.341 240.127 182.508 239.552 182.682 238.969C183.08 237.795 183.167 236.566 183.373 235.289C183.532 234.021 183.524 232.729 183.556 231.397C183.5 230.09 183.461 228.727 183.278 227.403C183 224.709 182.444 222.022 181.809 219.351C181.483 218.02 181.166 216.704 180.8 215.412C180.475 214.183 180.173 212.978 179.879 211.599C179.705 210.394 179.53 209.188 179.355 207.991C179.093 206.754 179.244 205.58 179.165 204.382C179.061 203.169 179.292 202.042 179.411 200.9C179.45 199.734 179.863 198.702 180.118 197.623C180.713 195.495 181.761 193.628 182.905 191.903C183.54 191.084 184.207 190.304 184.858 189.539C185.597 188.862 186.248 188.121 187.01 187.53C187.677 186.995 188.344 186.506 189.003 186.033C196.301 191.02 201.32 201.294 201.32 213.183C201.32 229.097 192.347 242.136 180.928 243.428C181.118 243.058 181.285 242.671 181.475 242.262L181.483 242.278Z" fill="#786465"/>
<path d="M179.061 182.819C181.237 182.819 183.341 183.268 185.335 184.064C185.168 184.143 185.009 184.221 184.842 184.308C183.85 184.804 182.913 185.49 181.872 186.128C180.911 186.869 179.958 187.712 178.998 188.61C178.569 189.106 178.132 189.618 177.687 190.13C177.259 190.65 176.774 191.162 176.449 191.777C175.766 192.982 174.876 194.164 174.447 195.551C173.915 196.898 173.328 198.292 173.129 199.75C172.851 201.199 172.494 202.688 172.55 204.162L172.486 206.399C172.486 206.769 172.462 207.156 172.478 207.518L172.605 208.613C172.804 210.102 172.947 211.473 173.201 213.08C173.487 214.364 173.868 215.79 174.257 217.177C174.638 218.469 175.011 219.753 175.392 221.029C176.099 223.543 176.822 225.985 177.29 228.333C177.814 230.696 178.124 232.95 178.235 235.085C178.235 236.14 178.315 237.196 178.172 238.165C178.14 238.661 178.1 239.158 178.069 239.63C177.973 240.103 177.862 240.552 177.775 241.001C177.664 241.442 177.616 241.907 177.457 242.317C177.306 242.695 177.163 243.058 177.036 243.428C165.696 242.025 156.811 229.026 156.811 213.19C156.811 196.417 166.776 182.811 179.077 182.811L179.061 182.819Z" fill="#786465"/>
<path d="M178.394 0C178.394 0 179.418 0.259988 181.125 0.984804C181.975 1.34721 182.999 1.83567 184.127 2.48171C185.247 3.13562 186.493 3.93922 187.764 4.96341C188.399 5.47551 189.019 6.07427 189.686 6.67303C190.321 7.30331 190.893 8.05176 191.528 8.78445C192.084 9.58805 192.64 10.4389 193.172 11.3449C193.585 12.3219 194.101 13.3067 194.331 14.4097C194.53 15.5284 194.903 16.655 194.8 17.8525L194.768 19.6488C194.752 20.2555 194.522 20.8148 194.403 21.3978L193.942 23.1468C193.728 23.6983 193.45 24.2104 193.204 24.7462C192.703 25.8176 192.179 26.8891 191.457 27.7636C190.75 28.6539 190.083 29.6229 189.32 30.4186C188.606 31.1592 187.891 31.8998 187.184 32.6403C185.85 34.0821 184.476 35.3899 183.404 36.7923C182.372 38.1946 181.348 39.5497 180.792 40.9127C180.284 42.2678 179.887 43.5914 180.101 44.8046C180.204 46.0337 180.728 47.1682 181.34 48.1372C181.935 49.1063 182.714 49.8547 183.269 50.5323C184.588 51.6983 185.366 52.4467 185.366 52.4467C185.366 52.4467 184.389 52.1158 182.642 51.4068C181.856 50.9262 180.768 50.4299 179.767 49.4844C178.751 48.5784 177.623 47.31 177.067 45.5295C176.353 43.7805 176.456 41.6612 176.932 39.6837C177.409 37.6668 178.37 35.8232 179.497 34.0585C180.641 32.3173 181.919 30.6471 183.325 29.1187C184 28.3781 184.675 27.6297 185.358 26.8812C185.993 26.18 186.438 25.4079 187.002 24.691C187.637 23.9977 188.002 23.2256 188.399 22.4614C188.59 22.0754 188.828 21.7051 188.995 21.319L189.328 20.1373C189.63 19.3573 189.686 18.5773 189.765 17.7895C189.956 17.0017 189.71 16.2217 189.678 15.4417C189.614 14.6539 189.233 13.9212 189.098 13.1491C188.796 12.4085 188.471 11.6837 188.137 10.9668C187.335 9.59593 186.478 8.29599 185.564 7.14574C184.627 6.01912 183.714 4.99493 182.856 4.11254C181.975 3.26167 181.213 2.48171 180.538 1.89082C179.212 0.677545 178.386 0.0157569 178.386 0.0157569L178.394 0Z" fill="#6D4A48"/>
<path d="M203.876 6.16089C203.876 6.16089 204.686 6.3027 206.036 6.80692C206.711 7.05903 207.521 7.3978 208.411 7.86263C209.3 8.33534 210.293 8.91834 211.301 9.69831C211.81 10.0843 212.302 10.5334 212.842 10.9904C213.358 11.471 213.811 12.054 214.319 12.6212C214.772 13.2436 215.224 13.9133 215.653 14.6302C215.994 15.4023 216.415 16.1823 216.63 17.0646C216.812 17.9549 217.106 18.8688 217.035 19.83C217.051 20.7911 217.035 21.7681 216.733 22.6898L216.376 24.1001C216.217 24.5413 215.994 24.951 215.788 25.3843C215.383 26.2351 214.962 27.086 214.39 27.7714C213.842 28.4726 213.31 29.2447 212.723 29.875C212.215 30.4343 211.563 31.0567 211.063 31.561C210.023 32.6324 209.014 33.633 208.181 34.6493C207.386 35.6656 206.592 36.6504 206.163 37.6116C205.774 38.5728 205.425 39.4945 205.536 40.3612C205.568 41.2357 205.894 42.0865 206.314 42.835C206.727 43.5834 207.283 44.1822 207.68 44.7258C208.641 45.6634 209.213 46.2936 209.213 46.2936C209.213 46.2936 208.443 46.0967 207.053 45.6003C206.426 45.2537 205.552 44.907 204.742 44.1901C203.916 43.5047 202.979 42.512 202.511 41.0939C201.907 39.6915 201.955 37.9819 202.312 36.3904C202.669 34.7675 203.4 33.31 204.25 31.8997C205.115 30.5052 206.132 29.2289 207.188 28.0314L208.72 26.306C209.197 25.7861 209.523 25.2267 209.943 24.6988C210.412 24.1867 210.666 23.6274 210.944 23.0759C211.079 22.8001 211.254 22.5323 211.381 22.2565L211.635 21.4293C212.04 20.3263 212.04 19.2233 211.945 18.1125C211.929 17.5452 211.659 17.0174 211.587 16.4422C211.389 15.8986 211.158 15.355 210.928 14.8193C210.356 13.7872 209.761 12.7867 209.102 11.8964C208.419 11.0298 207.76 10.2183 207.14 9.50922C206.489 8.81592 205.917 8.21716 205.449 7.7287C204.472 6.75177 203.876 6.18452 203.876 6.18452V6.16089Z" fill="#6D4A48"/>
<path d="M156.183 6.16089C156.183 6.16089 156.993 6.3027 158.343 6.80692C159.018 7.05903 159.828 7.3978 160.717 7.86263C161.607 8.33534 162.599 8.91834 163.608 9.69831C164.116 10.0843 164.608 10.5334 165.148 10.9904C165.664 11.471 166.117 12.054 166.625 12.6212C167.07 13.2436 167.531 13.9133 167.959 14.6302C168.301 15.4023 168.722 16.1823 168.936 17.0646C169.119 17.9549 169.413 18.8688 169.333 19.83C169.349 20.7911 169.333 21.7681 169.031 22.682L168.674 24.0922C168.507 24.5334 168.293 24.9431 168.086 25.3685C167.681 26.2194 167.261 27.0702 166.689 27.7557C166.141 28.4569 165.609 29.2289 165.021 29.8513C164.513 30.4107 163.862 31.0331 163.362 31.5373C162.321 32.6088 161.313 33.6094 160.487 34.6257C159.685 35.642 158.899 36.6268 158.47 37.5958C158.081 38.557 157.739 39.4788 157.843 40.3454C157.874 41.2199 158.2 42.0708 158.621 42.8192C159.034 43.5677 159.59 44.1665 159.987 44.7101C160.948 45.6476 161.519 46.2779 161.519 46.2779C161.519 46.2779 160.749 46.0809 159.359 45.5846C158.732 45.2379 157.858 44.8913 157.048 44.1743C156.223 43.4889 155.286 42.4962 154.817 41.0781C154.214 39.6757 154.253 37.9661 154.619 36.3747C154.976 34.7517 155.706 33.2863 156.556 31.884C157.422 30.4895 158.438 29.2132 159.494 28.0157L161.027 26.2982C161.503 25.7703 161.829 25.2188 162.25 24.691C162.718 24.1789 162.98 23.6195 163.258 23.068C163.393 22.7923 163.568 22.5244 163.695 22.2486L163.949 21.4214C164.354 20.3184 164.354 19.2155 164.259 18.1046C164.243 17.5373 163.973 17.0095 163.902 16.4344C163.703 15.8908 163.473 15.3471 163.242 14.8114C162.671 13.7872 162.075 12.7788 161.416 11.8885C160.733 11.0219 160.074 10.2104 159.455 9.50134C158.803 8.80804 158.232 8.20928 157.763 7.72082C156.786 6.74389 156.191 6.17665 156.191 6.17665L156.183 6.16089Z" fill="#6D4A48"/>
</g>
<defs>
<linearGradient id="paint0_linear_622_1222" x1="179.569" y1="118.035" x2="179.569" y2="74.4749" gradientUnits="userSpaceOnUse">
<stop stop-color="#D1B3B0"/>
<stop offset="0.41" stop-color="#BDA8AB"/>
<stop offset="1" stop-color="#9C96A3"/>
</linearGradient>
<linearGradient id="paint1_linear_622_1222" x1="179.569" y1="286.972" x2="179.569" y2="139.291" gradientUnits="userSpaceOnUse">
<stop stop-color="#DEBEBB"/>
<stop offset="1" stop-color="#A6A0AD"/>
</linearGradient>
<linearGradient id="paint2_linear_622_1222" x1="179.569" y1="286.972" x2="179.569" y2="309" gradientUnits="userSpaceOnUse">
<stop stop-color="#D1B3B0"/>
<stop offset="0.41" stop-color="#BDA8AB"/>
<stop offset="1" stop-color="#9C96A3"/>
</linearGradient>
<linearGradient id="paint3_linear_622_1222" x1="164.569" y1="286.972" x2="164.569" y2="139.291" gradientUnits="userSpaceOnUse">
<stop stop-color="#CFB1AE"/>
<stop offset="1" stop-color="#95909C"/>
</linearGradient>
<linearGradient id="paint4_linear_622_1222" x1="170.993" y1="118.035" x2="170.993" y2="74.4749" gradientUnits="userSpaceOnUse">
<stop stop-color="#B89D9B"/>
<stop offset="0.37" stop-color="#A49193"/>
<stop offset="1" stop-color="#7C7882"/>
</linearGradient>
<clipPath id="clip0_622_1222">
<rect width="254" height="309" fill="white"/>
</clipPath>
</defs>
</svg>
